{"asset":{"generator":"Khronos glTF Spline I/O v0.0.1","version":"2.0"},"scenes":[{"nodes":[0]}],"nodes":[{"name":"","children":[1,2,3]},{"name":"","camera":0,"translation":[-93.20490914133491,8.110353821200583,231.670517560926],"rotation":[0.06717880864208207,-0.032185697028990864,0.0021682185037399685,0.9972193276329478]},{"name":"Directional Light","translation":[200,300,300],"rotation":[-0.4062840720729887,0.12301291902225084,-0.2623788760260691,0.8665785595944042],"extensions":{"KHR_lights_punctual":{"light":0}}},{"name":"XIquiz","matrix":[0.9999213602304909,-0.012540867386347052,0,0,0.012540867386347052,0.9999213602304909,0,0,0,0,1,0,-25.423410328400212,-8.938355895682088,0,1],"children":[4,5,6,7,8,9,10]},{"name":"Xi","matrix":[0.9659258262890683,0.08852132690137685,-0.2432103468016939,0,-6.938893903907228e-18,0.9396926207859084,0.3420201433256686,0,0.2588190451025207,-0.33036608954935204,0.9076733711903687,0,-88.34981852290002,51.55209471127091,-6.500482682706206,1],"mesh":0},{"name":"Quiz","matrix":[0.9902680687415706,-0.047600003937439364,0.13077993598406573,0,2.0816681711721685e-17,0.9396926207859084,0.3420201433256687,0,-0.13917310096006466,-0.338691626801823,0.9305475967963612,0,-40.98169418267135,30.019107497044875,-0.5796072217090451,1],"mesh":1},{"name":"Sphere","matrix":[0.999390827019096,-0.0030416915566258773,0.034766693581101835,0,0.002918371321046932,0.9999892712992647,0.0035972760782036067,0,-0.03477726238392494,-0.003493622593337215,0.9993889816394058,0,-48.06554439669096,61.287635823583166,-5.026632876733253,1],"mesh":2},{"name":"Cube","matrix":[0.999390827019096,-1.822569910120702e-17,0.03489949670250137,0,1.8214596497756478e-17,1,6.360677256833563e-19,0,-0.03489949670250117,3.853619725502302e-34,0.9993908270190902,0,-55.78909498657412,45.22476991034647,-11.244991732514995,1],"mesh":3},{"name":"Sphere 2","matrix":[0.9975640502598241,-0.06975647374412534,0,0,0.06975647374412526,0.9975640502598226,0,0,0,0,1,0,-13.124275339871748,53.986521273094546,-5.569808641943746,1],"mesh":4},{"name":"Sphere 3","matrix":[0.9999999999999998,0,0,0,0,0.9999999999999983,0,0,0,0,1,0,-21.186018971464968,73.6796259333896,-3.746690732811284,1],"mesh":5},{"name":"Sphere 4","matrix":[0.9999999999999998,0,0,0,0,0.9999999999999983,0,0,0,0,1,0,-96.09947448427239,20.55060877698241,-1.5660419107606012,1],"mesh":6}],"cameras":[{"type":"perspective","perspective":{"aspectRatio":1.8423728813559321,"yfov":0.7853981633974483,"znear":5,"zfar":100000}}],"meshes":[{"primitives":[{"attributes":{"POSITION":1,"NORMAL":2,"TEXCOORD_0":3},"indices":0}]},{"primitives":[{"attributes":{"POSITION":5,"NORMAL":6,"TEXCOORD_0":7},"indices":4}]},{"primitives":[{"attributes":{"POSITION":9,"NORMAL":10,"TEXCOORD_0":11},"indices":8}]},{"primitives":[{"attributes":{"POSITION":13,"NORMAL":14,"TEXCOORD_0":15},"indices":12}]},{"primitives":[{"attributes":{"POSITION":17,"NORMAL":18,"TEXCOORD_0":19},"indices":16}]},{"primitives":[{"attributes":{"POSITION":21,"NORMAL":22,"TEXCOORD_0":23},"indices":20}]},{"primitives":[{"attributes":{"POSITION":25,"NORMAL":26,"TEXCOORD_0":27},"indices":24}]}],"buffers":[{"uri":"data:application/octet-stream;base64,","byteLength":88248},{"uri":"data:application/octet-stream;base64,","byteLength":184016},{"uri":"data:application/octet-stream;base64,","byteLength":183584},{"uri":"data:application/octet-stream;base64,","byteLength":23496},{"uri":"data:application/octet-stream;base64,","byteLength":183584},{"uri":"data:application/octet-stream;base64,","byteLength":183584},{"uri":"data:application/octet-stream;base64,","byteLength":183584}],"bufferViews":[{"buffer":0,"byteOffset":0,"byteLength":13752,"target":34963},{"buffer":0,"byteOffset":13752,"byteLength":27936,"target":34962},{"buffer":0,"byteOffset":41688,"byteLength":27936,"target":34962},{"buffer":0,"byteOffset":69624,"byteLength":18624,"target":34962},{"buffer":1,"byteOffset":0,"byteLength":28752,"target":34963},{"buffer":1,"byteOffset":28752,"byteLength":58224,"target":34962},{"buffer":1,"byteOffset":86976,"byteLength":58224,"target":34962},{"buffer":1,"byteOffset":145200,"byteLength":38816,"target":34962},{"buffer":2,"byteOffset":0,"byteLength":48384,"target":34963},{"buffer":2,"byteOffset":48384,"byteLength":50700,"target":34962},{"buffer":2,"byteOffset":99084,"byteLength":50700,"target":34962},{"buffer":2,"byteOffset":149784,"byteLength":33800,"target":34962},{"buffer":3,"byteOffset":0,"byteLength":4296,"target":34963},{"buffer":3,"byteOffset":4296,"byteLength":7200,"target":34962},{"buffer":3,"byteOffset":11496,"byteLength":7200,"target":34962},{"buffer":3,"byteOffset":18696,"byteLength":4800,"target":34962},{"buffer":4,"byteOffset":0,"byteLength":48384,"target":34963},{"buffer":4,"byteOffset":48384,"byteLength":50700,"target":34962},{"buffer":4,"byteOffset":99084,"byteLength":50700,"target":34962},{"buffer":4,"byteOffset":149784,"byteLength":33800,"target":34962},{"buffer":5,"byteOffset":0,"byteLength":48384,"target":34963},{"buffer":5,"byteOffset":48384,"byteLength":50700,"target":34962},{"buffer":5,"byteOffset":99084,"byteLength":50700,"target":34962},{"buffer":5,"byteOffset":149784,"byteLength":33800,"target":34962},{"buffer":6,"byteOffset":0,"byteLength":48384,"target":34963},{"buffer":6,"byteOffset":48384,"byteLength":50700,"target":34962},{"buffer":6,"byteOffset":99084,"byteLength":50700,"target":34962},{"buffer":6,"byteOffset":149784,"byteLength":33800,"target":34962}],"accessors":[{"bufferView":0,"byteOffset":0,"componentType":5123,"count":6876,"type":"SCALAR","min":[0],"max":[2327]},{"bufferView":1,"byteOffset":0,"componentType":5126,"count":2328,"type":"VEC3","min":[-19.200000762939453,-16.51999855041504,0],"max":[18.479999542236328,17.35999870300293,8]},{"bufferView":2,"byteOffset":0,"componentType":5126,"count":2328,"type":"VEC3","min":[-0.9999912977218628,-0.9999845623970032,-1],"max":[1,0.9999905228614807,1]},{"bufferView":3,"byteOffset":0,"componentType":5126,"count":2328,"type":"VEC2","min":[0,0],"max":[1,1]},{"bufferView":4,"byteOffset":0,"componentType":5123,"count":14376,"type":"SCALAR","min":[0],"max":[4851]},{"bufferView":5,"byteOffset":0,"componentType":5126,"count":4852,"type":"VEC3","min":[-31.545000076293945,-20.76000213623047,0],"max":[33.13500213623047,13.020000457763672,8]},{"bufferView":6,"byteOffset":0,"componentType":5126,"count":4852,"type":"VEC3","min":[-0.9999935626983643,-0.9999796152114868,-1],"max":[1,1,1]},{"bufferView":7,"byteOffset":0,"componentType":5126,"count":4852,"type":"VEC2","min":[0,0],"max":[1,1]},{"bufferView":8,"byteOffset":0,"componentType":5123,"count":24192,"type":"SCALAR","min":[0],"max":[4224]},{"bufferView":9,"byteOffset":0,"componentType":5126,"count":4225,"type":"VEC3","min":[-16.618059158325195,-19.132978439331055,-10.509256362915039],"max":[16.618059158325195,19.132978439331055,10.509256362915039]},{"bufferView":10,"byteOffset":0,"componentType":5126,"count":4225,"type":"VEC3","min":[-1,-1,-1],"max":[1,1,1]},{"bufferView":11,"byteOffset":0,"componentType":5126,"count":4225,"type":"VEC2","min":[-0.0078125,0],"max":[1.0078125,1]},{"bufferView":12,"byteOffset":0,"componentType":5123,"count":2148,"type":"SCALAR","min":[0],"max":[599]},{"bufferView":13,"byteOffset":0,"componentType":5126,"count":600,"type":"VEC3","min":[-58.19546890258789,-41.35096740722656,-2.9243850708007812],"max":[58.19546890258789,41.35096740722656,2.9243850708007812]},{"bufferView":14,"byteOffset":0,"componentType":5126,"count":600,"type":"VEC3","min":[-1,-1,-1],"max":[1,1,1]},{"bufferView":15,"byteOffset":0,"componentType":5126,"count":600,"type":"VEC2","min":[0,0],"max":[1,1]},{"bufferView":16,"byteOffset":0,"componentType":5123,"count":24192,"type":"SCALAR","min":[0],"max":[4224]},{"bufferView":17,"byteOffset":0,"componentType":5126,"count":4225,"type":"VEC3","min":[-9.294249534606934,-9.487167358398438,-3.6858880519866943],"max":[9.294249534606934,9.487167358398438,3.6858880519866943]},{"bufferView":18,"byteOffset":0,"componentType":5126,"count":4225,"type":"VEC3","min":[-1,-1,-1],"max":[1,1,1]},{"bufferView":19,"byteOffset":0,"componentType":5126,"count":4225,"type":"VEC2","min":[-0.0078125,0],"max":[1.0078125,1]},{"bufferView":20,"byteOffset":0,"componentType":5123,"count":24192,"type":"SCALAR","min":[0],"max":[4224]},{"bufferView":21,"byteOffset":0,"componentType":5126,"count":4225,"type":"VEC3","min":[-8.355713844299316,-7.680329322814941,-4.14258337020874],"max":[8.355713844299316,7.680329322814941,4.14258337020874]},{"bufferView":22,"byteOffset":0,"componentType":5126,"count":4225,"type":"VEC3","min":[-1,-1,-1],"max":[1,1,1]},{"bufferView":23,"byteOffset":0,"componentType":5126,"count":4225,"type":"VEC2","min":[-0.0078125,0],"max":[1.0078125,1]},{"bufferView":24,"byteOffset":0,"componentType":5123,"count":24192,"type":"SCALAR","min":[0],"max":[4224]},{"bufferView":25,"byteOffset":0,"componentType":5126,"count":4225,"type":"VEC3","min":[-9.18427562713623,-8.551312446594238,-6.099977970123291],"max":[9.18427562713623,8.551312446594238,6.099977970123291]},{"bufferView":26,"byteOffset":0,"componentType":5126,"count":4225,"type":"VEC3","min":[-1,-1,-1],"max":[1,1,1]},{"bufferView":27,"byteOffset":0,"componentType":5126,"count":4225,"type":"VEC2","min":[-0.0078125,0],"max":[1.0078125,1]}],"extensions":{"KHR_lights_punctual":{"lights":[{"type":"directional","name":"Directional Light","color":[1,1,1],"intensity":0.7}]}},"extensionsUsed":["KHR_lights_punctual"]}